HIERARCHY
ROOT Hips
{
  OFFSET -21.7848 93.0946 1805.31
  CHANNELS 6 Xposition Yposition Zposition Zrotation Xrotation Yrotation
  JOINT Spine
  {
    OFFSET 0 8 0
    CHANNELS 6 Xposition Yposition Zposition Zrotation Xrotation Yrotation
    JOINT Spine1
    {
      OFFSET 0 8 0
      CHANNELS 6 Xposition Yposition Zposition Zrotation Xrotation Yrotation
      JOINT Spine2
      {
        OFFSET 0 8 0
        CHANNELS 6 Xposition Yposition Zposition Zrotation Xrotation Yrotation
        JOINT Spine3
        {
          OFFSET 0 8 0
          CHANNELS 6 Xposition Yposition Zposition Zrotation Xrotation Yrotation
          JOINT Neck
          {
            OFFSET 0 17 0
            CHANNELS 6 Xposition Yposition Zposition Zrotation Xrotation Yrotation
            JOINT Head
            {
              OFFSET 0 10.8 0
              CHANNELS 6 Xposition Yposition Zposition Zrotation Xrotation Yrotation
              End Site
              {
                OFFSET 0 20.25 0
              }
            }
          }
          JOINT LeftShoulder
          {
            OFFSET 5 17 0
            CHANNELS 6 Xposition Yposition Zposition Zrotation Xrotation Yrotation
            JOINT LeftShoulder2
            {
              OFFSET 6.45 0 0
              CHANNELS 6 Xposition Yposition Zposition Zrotation Xrotation Yrotation
              JOINT LeftArm
              {
                OFFSET 6.45 0 0
                CHANNELS 6 Xposition Yposition Zposition Zrotation Xrotation Yrotation
                JOINT LeftForeArm
                {
                  OFFSET 0 -32.4 -2
                  CHANNELS 6 Xposition Yposition Zposition Zrotation Xrotation Yrotation
                  JOINT LeftHand
                  {
                    OFFSET 0 -25.65 2
                    CHANNELS 6 Xposition Yposition Zposition Zrotation Xrotation Yrotation
                    JOINT LeftHandThumb1
                    {
                      OFFSET -0.5 -1.5 2.65
                      CHANNELS 6 Xposition Yposition Zposition Zrotation Xrotation Yrotation
                      JOINT LeftHandThumb2
                      {
                        OFFSET 0 -3.8 3.7
                        CHANNELS 6 Xposition Yposition Zposition Zrotation Xrotation Yrotation
                        JOINT LeftHandThumb3
                        {
                          OFFSET 0 -3 2.7
                          CHANNELS 6 Xposition Yposition Zposition Zrotation Xrotation Yrotation
                          End Site
                          {
                            OFFSET 0 -2.3 1.8
                          }
                        }
                      }
                    }
                    JOINT LeftHandIndex
                    {
                      OFFSET 0 -1.9 1.6
                      CHANNELS 6 Xposition Yposition Zposition Zrotation Xrotation Yrotation
                      JOINT LeftHandIndex1
                      {
                        OFFSET 0 -8.3 1.9
                        CHANNELS 6 Xposition Yposition Zposition Zrotation Xrotation Yrotation
                        JOINT LeftHandIndex2
                        {
                          OFFSET 0 -4.5 0
                          CHANNELS 6 Xposition Yposition Zposition Zrotation Xrotation Yrotation
                          JOINT LeftHandIndex3
                          {
                            OFFSET 0 -3.4 0
                            CHANNELS 6 Xposition Yposition Zposition Zrotation Xrotation Yrotation
                            End Site
                            {
                              OFFSET 0 -2.6 0
                            }
                          }
                        }
                      }
                    }
                    JOINT LeftHandMiddle
                    {
                      OFFSET -0.25 -2.2 0.4
                      CHANNELS 6 Xposition Yposition Zposition Zrotation Xrotation Yrotation
                      JOINT LeftHandMiddle1
                      {
                        OFFSET 0 -8.3 1
                        CHANNELS 6 Xposition Yposition Zposition Zrotation Xrotation Yrotation
                        JOINT LeftHandMiddle2
                        {
                          OFFSET 0 -4.65 0
                          CHANNELS 6 Xposition Yposition Zposition Zrotation Xrotation Yrotation
                          JOINT LeftHandMiddle3
                          {
                            OFFSET 0 -3.3 0
                            CHANNELS 6 Xposition Yposition Zposition Zrotation Xrotation Yrotation
                            End Site
                            {
                              OFFSET 0 -2.7 0
                            }
                          }
                        }
                      }
                    }
                    JOINT LeftHandRing
                    {
                      OFFSET -0.5 -2.15 -0.8
                      CHANNELS 6 Xposition Yposition Zposition Zrotation Xrotation Yrotation
                      JOINT LeftHandRing1
                      {
                        OFFSET 0 -7.75 -0.2
                        CHANNELS 6 Xposition Yposition Zposition Zrotation Xrotation Yrotation
                        JOINT LeftHandRing2
                        {
                          OFFSET 0 -3.8 0
                          CHANNELS 6 Xposition Yposition Zposition Zrotation Xrotation Yrotation
                          JOINT LeftHandRing3
                          {
                            OFFSET 0 -3.4 0
                            CHANNELS 6 Xposition Yposition Zposition Zrotation Xrotation Yrotation
                            End Site
                            {
                              OFFSET 0 -2.6 0
                            }
                          }
                        }
                      }
                    }
                    JOINT LeftHandPinky
                    {
                      OFFSET -0.75 -1.75 -1.85
                      CHANNELS 6 Xposition Yposition Zposition Zrotation Xrotation Yrotation
                      JOINT LeftHandPinky1
                      {
                        OFFSET 0 -7.15 -1
                        CHANNELS 6 Xposition Yposition Zposition Zrotation Xrotation Yrotation
                        JOINT LeftHandPinky2
                        {
                          OFFSET 0 -3 0
                          CHANNELS 6 Xposition Yposition Zposition Zrotation Xrotation Yrotation
                          JOINT LeftHandPinky3
                          {
                            OFFSET 0 -2.35 0
                            CHANNELS 6 Xposition Yposition Zposition Zrotation Xrotation Yrotation
                            End Site
                            {
                              OFFSET 0 -2.1 0
                            }
                          }
                        }
                      }
                    }
                  }
                }
              }
            }
          }
          JOINT RightShoulder
          {
            OFFSET -5 17 0
            CHANNELS 6 Xposition Yposition Zposition Zrotation Xrotation Yrotation
            JOINT RightShoulder2
            {
              OFFSET -6.45 0 0
              CHANNELS 6 Xposition Yposition Zposition Zrotation Xrotation Yrotation
              JOINT RightArm
              {
                OFFSET -6.45 0 0
                CHANNELS 6 Xposition Yposition Zposition Zrotation Xrotation Yrotation
                JOINT RightForeArm
                {
                  OFFSET 0 -32.4 -2
                  CHANNELS 6 Xposition Yposition Zposition Zrotation Xrotation Yrotation
                  JOINT RightHand
                  {
                    OFFSET 0 -25.65 2
                    CHANNELS 6 Xposition Yposition Zposition Zrotation Xrotation Yrotation
                    JOINT RightHandThumb1
                    {
                      OFFSET 0.5 -1.5 2.65
                      CHANNELS 6 Xposition Yposition Zposition Zrotation Xrotation Yrotation
                      JOINT RightHandThumb2
                      {
                        OFFSET 0 -3.8 3.7
                        CHANNELS 6 Xposition Yposition Zposition Zrotation Xrotation Yrotation
                        JOINT RightHandThumb3
                        {
                          OFFSET 0 -3 2.7
                          CHANNELS 6 Xposition Yposition Zposition Zrotation Xrotation Yrotation
                          End Site
                          {
                            OFFSET 0 -2.3 1.8
                          }
                        }
                      }
                    }
                    JOINT RightHandIndex
                    {
                      OFFSET 0 -1.9 1.6
                      CHANNELS 6 Xposition Yposition Zposition Zrotation Xrotation Yrotation
                      JOINT RightHandIndex1
                      {
                        OFFSET 0 -8.3 1.9
                        CHANNELS 6 Xposition Yposition Zposition Zrotation Xrotation Yrotation
                        JOINT RightHandIndex2
                        {
                          OFFSET 0 -4.5 0
                          CHANNELS 6 Xposition Yposition Zposition Zrotation Xrotation Yrotation
                          JOINT RightHandIndex3
                          {
                            OFFSET 0 -3.4 0
                            CHANNELS 6 Xposition Yposition Zposition Zrotation Xrotation Yrotation
                            End Site
                            {
                              OFFSET 0 -2.6 0
                            }
                          }
                        }
                      }
                    }
                    JOINT RightHandMiddle
                    {
                      OFFSET 0.25 -2.2 0.4
                      CHANNELS 6 Xposition Yposition Zposition Zrotation Xrotation Yrotation
                      JOINT RightHandMiddle1
                      {
                        OFFSET 0 -8.3 1
                        CHANNELS 6 Xposition Yposition Zposition Zrotation Xrotation Yrotation
                        JOINT RightHandMiddle2
                        {
                          OFFSET 0 -4.65 0
                          CHANNELS 6 Xposition Yposition Zposition Zrotation Xrotation Yrotation
                          JOINT RightHandMiddle3
                          {
                            OFFSET 0 -3.3 0
                            CHANNELS 6 Xposition Yposition Zposition Zrotation Xrotation Yrotation
                            End Site
                            {
                              OFFSET 0 -2.7 0
                            }
                          }
                        }
                      }
                    }
                    JOINT RightHandRing
                    {
                      OFFSET 0.5 -2.15 -0.8
                      CHANNELS 6 Xposition Yposition Zposition Zrotation Xrotation Yrotation
                      JOINT RightHandRing1
                      {
                        OFFSET 0 -7.75 -0.2
                        CHANNELS 6 Xposition Yposition Zposition Zrotation Xrotation Yrotation
                        JOINT RightHandRing2
                        {
                          OFFSET 0 -3.8 0
                          CHANNELS 6 Xposition Yposition Zposition Zrotation Xrotation Yrotation
                          JOINT RightHandRing3
                          {
                            OFFSET 0 -3.4 0
                            CHANNELS 6 Xposition Yposition Zposition Zrotation Xrotation Yrotation
                            End Site
                            {
                              OFFSET 0 -2.6 0
                            }
                          }
                        }
                      }
                    }
                    JOINT RightHandPinky
                    {
                      OFFSET 0.75 -1.75 -1.85
                      CHANNELS 6 Xposition Yposition Zposition Zrotation Xrotation Yrotation
                      JOINT RightHandPinky1
                      {
                        OFFSET 0 -7.15 -1
                        CHANNELS 6 Xposition Yposition Zposition Zrotation Xrotation Yrotation
                        JOINT RightHandPinky2
                        {
                          OFFSET 0 -3 0
                          CHANNELS 6 Xposition Yposition Zposition Zrotation Xrotation Yrotation
                          JOINT RightHandPinky3
                          {
                            OFFSET 0 -2.35 0
                            CHANNELS 6 Xposition Yposition Zposition Zrotation Xrotation Yrotation
                            End Site
                            {
                              OFFSET 0 -2.1 0
                            }
                          }
                        }
                      }
                    }
                  }
                }
              }
            }
          }
        }
      }
    }
  }
  JOINT LeftUpLeg
  {
    OFFSET 8 0 0
    CHANNELS 6 Xposition Yposition Zposition Zrotation Xrotation Yrotation
    JOINT LeftLeg
    {
      OFFSET 0 -45 -1
      CHANNELS 6 Xposition Yposition Zposition Zrotation Xrotation Yrotation
      JOINT LeftFoot
      {
        OFFSET 0 -41 -2
        CHANNELS 6 Xposition Yposition Zposition Zrotation Xrotation Yrotation
        JOINT LeftToeBase
        {
          OFFSET 0 -7.5 12.5
          CHANNELS 6 Xposition Yposition Zposition Zrotation Xrotation Yrotation
          JOINT LeftFootToe
          {
            OFFSET 0 0 4
            CHANNELS 6 Xposition Yposition Zposition Zrotation Xrotation Yrotation
            End Site
            {
              OFFSET 0 0 0
            }
          }
        }
      }
    }
  }
  JOINT RightUpLeg
  {
    OFFSET -8 0 0
    CHANNELS 6 Xposition Yposition Zposition Zrotation Xrotation Yrotation
    JOINT RightLeg
    {
      OFFSET 0 -45 -1
      CHANNELS 6 Xposition Yposition Zposition Zrotation Xrotation Yrotation
      JOINT RightFoot
      {
        OFFSET 0 -41 -2
        CHANNELS 6 Xposition Yposition Zposition Zrotation Xrotation Yrotation
        JOINT RightToeBase
        {
          OFFSET 0 -7.5 12.5
          CHANNELS 6 Xposition Yposition Zposition Zrotation Xrotation Yrotation
          JOINT RightFootToe
          {
            OFFSET 0 0 4
            CHANNELS 6 Xposition Yposition Zposition Zrotation Xrotation Yrotation
            End Site
            {
              OFFSET 0 0 0
            }
          }
        }
      }
    }
  }
}
MOTION
Frames:	3
Frame Time:	0.0111111
-288.99 91.7491 815.179 5.39796 1.41839 169.677 2.84217e-14 8 0 5.86808 -1.88478 -3.79089 -5.68434e-14 8 -1.13687e-13 -0.520938 2.02282 1.28729 8.52651e-14 8 0 -0.254806 1.00924 0.642825 -2.84217e-14 8 0 -0.254746 1.00901 0.642678 -2.84217e-14 17 0 -0.165821 -7.79479 4.31792 0 10.8 0 0.456641 -10.3651 10.1778 5 17 0 1.31855 -2.99647 0.162145 6.45 -2.84217e-14 1.13687e-13 -0.608809 -0.310522 0.6204 6.45 0 1.13687e-13 23.2661 -20.4312 13.7576 0 -32.4 -2 -52.8027 -36.1936 -46.1917 -5.68434e-14 -25.65 2 10.2764 -13.1982 -22.7139 -0.5 -1.5 2.65 3.31431 12.7423 -21.0035 0 -3.8 3.7 -0.920367 7.67812 -0.04657 -2.84217e-14 -3 2.7 -0.0719898 -6.5616 0.142289 0 -1.9 1.6 2.64834e-31 3.18055e-15 -4.77083e-15 0 -8.3 1.9 -8.91766 21.8096 2.31988 5.68434e-14 -4.5 0 -2.57223e-07 -0.00482493 -0.00305451 -2.84217e-14 -3.4 -2.84217e-14 -3.20315e-07 -0.00458875 -0.0039995 -0.25 -2.2 0.4 2.64834e-31 3.18055e-15 -4.77083e-15 -5.68434e-14 -8.3 1 -7.78175 17.8285 1.75008 2.84217e-14 -4.65 -2.84217e-14 0.000969601 -0.000448594 0.000620017 2.84217e-14 -3.3 0 0.000969504 -0.000444677 0.000607035 -0.5 -2.15 -0.8 2.64834e-31 3.18055e-15 -4.77083e-15 5.68434e-14 -7.75 -0.2 -8.7414 14.5493 1.61943 0 -3.8 1.42109e-14 -2.21335 0.00440604 0.00309836 0 -3.4 -1.42109e-14 -2.14746 0.00563199 0.00301992 -0.75 -1.75 -1.85 2.64834e-31 3.18055e-15 -4.77083e-15 -5.68434e-14 -7.15 -1 -8.47131 16.5128 1.8331 0 -3 -5.68434e-14 0.000513471 -0.000397679 -0.00031269 0 -2.35 0 0.000514162 -0.000395827 -0.000310833 -5 17 0 0.19576 -3.60989 2.63775 -6.45 -2.84217e-14 0 -1.6302 1.36956 -2.36895 -6.45 -2.84217e-14 0 -10.7717 13.4152 -12.9919 -2.84217e-14 -32.4 -2 63.4962 -25.7992 88.0573 0 -25.65 2 -9.92713 4.44692 14.7276 0.5 -1.5 2.65 -2.28404 -5.88546 -4.80229 0 -3.8 3.7 0.0400095 23.5748 -0.0200999 0 -3 2.7 0.00107659 30.2986 -0.00153092 0 -1.9 1.6 -2.64834e-31 -1.59028e-15 -9.54166e-15 0 -8.3 1.9 17.1663 9.86727 -1.6392 -1.13687e-13 -4.5 0 6.66234e-08 0.00210954 -0.00180952 1.13687e-13 -3.4 0 6.57998e-08 0.0019809 -0.0019032 0.25 -2.2 0.4 -2.64834e-31 -1.59028e-15 -9.54166e-15 0 -8.3 1 29.8368 7.46015 -3.12167 -1.13687e-13 -4.65 -5.68434e-14 78.8427 0.00290523 0.00703352 0 -3.3 0 63.9683 0.00293279 -0.00100655 0.5 -2.15 -0.8 -2.64834e-31 -1.59028e-15 -9.54166e-15 0 -7.75 -0.2 53.084 -1.0491 -2.83298 0 -3.8 -5.68434e-14 52.252 -0.000944657 0.00843931 -5.68434e-14 -3.4 0 36.0709 -0.00169185 -0.00208837 0.75 -1.75 -1.85 -2.64834e-31 -1.59028e-15 -9.54166e-15 0 -7.15 -1 63.3999 -4.76585 -2.28335 0 -3 0 13.6607 -0.000406104 0.00451013 -1.13687e-13 -2.35 2.84217e-14 11.5461 3.7391e-05 0.0040747 8 0 0 17.7108 -22.6804 -3.42395 0 -45 -1 0.663058 23.7456 -4.17857 -2.84217e-14 -41 -2 -1.36588 -9.86689 6.31212 5.68434e-14 -7.5 12.5 1.19271e-15 -1.59028e-15 1.59028e-15 -2.84217e-14 0 4 7.62756 0.933067 46.5583 -8 2.84217e-14 1.13687e-13 5.75899 -9.70782 -8.35142 -2.84217e-14 -45 -1 0.036518 15.429 -0.475391 0 -41 -2 -2.44315 -3.61158 -0.422838 0 -7.5 12.5 5.82377e-19 0 -3.18055e-15 -5.68434e-14 -1.38778e-17 4 4.65026 -3.71225 11.282 
-288.98 91.7493 815.17 5.39618 1.4117 169.647 2.84217e-14 8 0 5.87265 -1.88499 -3.78984 -2.84217e-14 8 0 -0.523759 2.02086 1.28853 0 8 -1.13687e-13 -0.256133 1.00894 0.643728 5.68434e-14 8 1.13687e-13 -0.256074 1.00871 0.643581 5.68434e-14 17 0 -0.172202 -7.77365 4.30555 -2.84217e-14 10.8 1.13687e-13 0.428184 -10.327 10.1478 5 17 0 1.32468 -2.98901 0.146012 6.45 0 0 -0.608531 -0.310558 0.61896 6.45 -2.84217e-14 0 23.2364 -20.393 13.7782 0 -32.4 -2 -52.8337 -36.2103 -46.2715 5.68434e-14 -25.65 2 10.3189 -13.232 -22.726 -0.5 -1.5 2.65 3.28588 12.7837 -21.0255 2.84217e-14 -3.8 3.7 -0.925138 7.62204 -0.0471276 2.84217e-14 -3 2.7 -0.0720523 -6.59769 0.142503 -5.68434e-14 -1.9 1.6 -3.18055e-15 0 -1.59028e-15 -5.68434e-14 -8.3 1.9 -8.91631 21.8083 2.31909 -5.68434e-14 -4.5 0 -2.55802e-07 -0.00481389 -0.0030446 2.84217e-14 -3.4 2.84217e-14 -3.19133e-07 -0.00457875 -0.00399345 -0.25 -2.2 0.4 -3.18055e-15 0 -1.59028e-15 0 -8.3 1 -7.79404 17.828 1.75174 0 -4.65 0 0.000967554 -0.000447646 0.000618707 2.84217e-14 -3.3 0 0.000967458 -0.000443737 0.000605752 -0.5 -2.15 -0.8 -3.18055e-15 0 -1.59028e-15 -5.68434e-14 -7.75 -0.2 -8.7819 14.563 1.62717 2.84217e-14 -3.8 -1.42109e-14 -2.30974 0.00439221 0.00309139 -2.84217e-14 -3.4 -2.84217e-14 -2.23802 0.00558942 0.00301311 -0.75 -1.75 -1.85 -3.18055e-15 0 -1.59028e-15 -5.68434e-14 -7.15 -1 -8.5301 16.535 1.84573 0 -3 5.68434e-14 0.00051237 -0.000398143 -0.000313055 2.84217e-14 -2.35 0 0.000513058 -0.000396288 -0.000311196 -5 17 -1.13687e-13 0.209754 -3.59955 2.62889 -6.45 2.84217e-14 0 -1.62836 1.36907 -2.36513 -6.45 2.84217e-14 0 -10.756 13.4155 -13.0027 0 -32.4 -2 63.4716 -25.8509 88.1082 0 -25.65 2 -9.90776 4.39131 14.797 0.5 -1.5 2.65 -2.3388 -5.80572 -4.78064 0 -3.8 3.7 0.0398122 23.417 -0.0199427 0 -3 2.7 0.00074841 30.5624 -0.00126727 0 -1.9 1.6 6.36111e-15 0 -3.18055e-15 1.13687e-13 -8.3 1.9 17.0279 9.80373 -1.61553 0 -4.5 0 6.6769e-08 0.00211188 -0.00181146 1.13687e-13 -3.4 0 6.59442e-08 0.0019831 -0.00190526 0.25 -2.2 0.4 6.36111e-15 0 -3.18055e-15 0 -8.3 1 29.5846 7.36879 -3.06581 1.13687e-13 -4.65 0 78.9087 0.00292269 0.00707169 0 -3.3 0 64.0779 0.00292839 -0.00103683 0.5 -2.15 -0.8 6.36111e-15 0 -3.18055e-15 0 -7.75 -0.2 52.7034 -1.07021 -2.78249 -1.13687e-13 -3.8 2.84217e-14 52.2413 -0.000970592 0.00860109 0 -3.4 0 36.0633 -0.00173431 -0.00209275 0.75 -1.75 -1.85 6.36111e-15 0 -3.18055e-15 0 -7.15 -1 62.9216 -4.7779 -2.21483 0 -3 2.84217e-14 13.7807 -0.000436465 0.00456961 0 -2.35 -2.84217e-14 11.6328 2.04353e-05 0.00408235 8 0 -1.13687e-13 17.7217 -22.6613 -3.42455 5.68434e-14 -45 -1 0.661496 23.7347 -4.17092 0 -41 -2 -1.36129 -9.85767 6.3336 0 -7.5 12.5 -7.95139e-16 1.59028e-15 -1.59028e-15 0 0 4 7.6232 0.932769 46.5592 -8 0 0 5.76254 -9.70766 -8.35771 2.84217e-14 -45 -1 0.0370337 15.4336 -0.477039 -5.68434e-14 -41 -2 -2.44908 -3.62083 -0.407006 5.68434e-14 -7.5 12.5 5.82377e-19 0 -0 0 0 4 4.67072 -3.69671 11.2827 
-288.969 91.7496 815.16 5.39425 1.40515 169.618 0 8 -1.13687e-13 5.87742 -1.88521 -3.78868 2.84217e-14 8 1.13687e-13 -0.526656 2.01892 1.28984 2.84217e-14 8 1.13687e-13 -0.257624 1.00864 0.644649 2.84217e-14 8 -1.13687e-13 -0.257564 1.00841 0.644502 -2.84217e-14 17 1.13687e-13 -0.177601 -7.75207 4.29182 0 10.8 0 0.400861 -10.2882 10.1146 5 17 1.13687e-13 1.33075 -2.98113 0.13387 6.45 0 1.13687e-13 -0.608261 -0.310669 0.617456 6.45 0 0 23.2011 -20.3614 13.7934 -1.13687e-13 -32.4 -2 -52.8512 -36.2232 -46.3401 5.68434e-14 -25.65 2 10.3529 -13.2711 -22.744 -0.5 -1.5 2.65 3.25779 12.8216 -21.0495 2.84217e-14 -3.8 3.7 -0.929948 7.56624 -0.0476671 0 -3 2.7 -0.0721066 -6.63243 0.142703 0 -1.9 1.6 -0 -4.77083e-15 -0 5.68434e-14 -8.3 1.9 -8.91491 21.8069 2.31835 -2.84217e-14 -4.5 0 -2.54388e-07 -0.00480283 -0.00303474 2.84217e-14 -3.4 0 -3.17953e-07 -0.00456872 -0.00398742 -0.25 -2.2 0.4 -0 -4.77083e-15 -0 0 -8.3 1 -7.80223 17.8276 1.75363 0 -4.65 0 0.000965504 -0.000446696 0.000617394 2.84217e-14 -3.3 -2.84217e-14 0.000965407 -0.000442796 0.000604467 -0.5 -2.15 -0.8 -0 -4.77083e-15 -0 5.68434e-14 -7.75 -0.2 -8.81493 14.5719 1.63323 5.68434e-14 -3.8 2.84217e-14 -2.40584 0.0043786 0.00308443 -5.68434e-14 -3.4 2.84217e-14 -2.3281 0.00554708 0.00300631 -0.75 -1.75 -1.85 -0 -4.77083e-15 -0 0 -7.15 -1 -8.57918 16.5513 1.85596 0 -3 0 0.000511265 -0.000398605 -0.000313418 -5.68434e-14 -2.35 2.84217e-14 0.000511953 -0.000396748 -0.000311557 -5 17 0 0.224025 -3.59089 2.62114 -6.45 -2.84217e-14 1.13687e-13 -1.62665 1.36801 -2.36007 -6.45 -2.84217e-14 -1.13687e-13 -10.7343 13.4231 -13.0245 2.84217e-14 -32.4 -2 63.4429 -25.8932 88.1458 -1.13687e-13 -25.65 2 -9.881 4.33186 14.8612 0.5 -1.5 2.65 -2.40156 -5.7261 -4.741 -1.13687e-13 -3.8 3.7 0.0396151 23.2443 -0.0197859 0 -3 2.7 0.000412233 30.8682 -0.00100737 0 -1.9 1.6 1.76556e-31 3.18055e-15 -3.18055e-15 0 -8.3 1.9 16.8387 9.70164 -1.58118 -1.13687e-13 -4.5 -5.68434e-14 6.69146e-08 0.00211422 -0.0018134 0 -3.4 0 6.60886e-08 0.0019853 -0.00190732 0.25 -2.2 0.4 1.76556e-31 3.18055e-15 -3.18055e-15 0 -8.3 1 29.2749 7.25322 -2.99798 0 -4.65 0 78.9815 0.00294102 0.00711088 0 -3.3 0 64.1988 0.00292524 -0.00106808 0.5 -2.15 -0.8 1.76556e-31 3.18055e-15 -3.18055e-15 -1.13687e-13 -7.75 -0.2 52.2514 -1.09665 -2.72342 0 -3.8 -2.84217e-14 52.1972 -0.00099654 0.00876508 -5.68434e-14 -3.4 2.84217e-14 36.032 -0.00177718 -0.00209717 0.75 -1.75 -1.85 1.76556e-31 3.18055e-15 -3.18055e-15 0 -7.15 -1 62.3699 -4.79039 -2.13849 -1.13687e-13 -3 0 13.8683 -0.000468044 0.00463015 1.13687e-13 -2.35 0 11.6961 3.58732e-06 0.00409116 8 0 0 17.7328 -22.6414 -3.42574 5.68434e-14 -45 -1 0.659615 23.7219 -4.16268 5.68434e-14 -41 -2 -1.3531 -9.84628 6.35845 -5.68434e-14 -7.5 12.5 2.78299e-15 -3.18055e-15 1.59028e-15 5.68434e-14 0 4 7.61478 0.93255 46.5602 -8 0 0 5.76666 -9.70765 -8.36326 -2.84217e-14 -45 -1 0.0375839 15.4405 -0.478744 0 -41 -2 -2.45548 -3.63206 -0.388727 1.13687e-13 -7.5 12.5 -5.82377e-19 -7.76503e-19 -3.18055e-15 0 0 4 4.69478 -3.6768 11.2834 
